<svg xmlns="http://www.w3.org/2000/svg" viewBox="0 0 100 100">
  <rect width="100" height="100" fill="#0a0a0a" rx="16"/>
  <path d="M63.36,73.13L23.29,50.00L63.36,26.87Z" fill="rgb(0,20,0)" stroke="rgba(0,229,160,0.18)" stroke-width="0.4" stroke-linejoin="round"/><path d="M28.39,12.57L63.36,26.87L23.29,50.00Z" fill="rgb(0,20,0)" stroke="rgba(0,229,160,0.18)" stroke-width="0.4" stroke-linejoin="round"/><path d="M63.36,73.13L63.36,26.87L93.22,50.00Z" fill="rgb(0,20,0)" stroke="rgba(0,229,160,0.18)" stroke-width="0.4" stroke-linejoin="round"/><path d="M63.36,73.13L28.39,87.43L23.29,50.00Z" fill="rgb(0,20,0)" stroke="rgba(0,229,160,0.18)" stroke-width="0.4" stroke-linejoin="round"/><path d="M71.61,12.57L93.22,50.00L63.36,26.87Z" fill="rgb(0,20,0)" stroke="rgba(0,229,160,0.18)" stroke-width="0.4" stroke-linejoin="round"/><path d="M71.61,12.57L63.36,26.87L28.39,12.57Z" fill="rgb(0,20,0)" stroke="rgba(0,229,160,0.18)" stroke-width="0.4" stroke-linejoin="round"/><path d="M28.39,12.57L23.29,50.00L6.78,50.00Z" fill="rgb(0,20,0)" stroke="rgba(0,229,160,0.18)" stroke-width="0.4" stroke-linejoin="round"/><path d="M6.78,50.00L23.29,50.00L28.39,87.43Z" fill="rgb(0,20,0)" stroke="rgba(0,229,160,0.18)" stroke-width="0.4" stroke-linejoin="round"/><path d="M63.36,73.13L71.61,87.43L28.39,87.43Z" fill="rgb(0,20,0)" stroke="rgba(0,229,160,0.18)" stroke-width="0.4" stroke-linejoin="round"/><path d="M63.36,73.13L93.22,50.00L71.61,87.43Z" fill="rgb(0,20,0)" stroke="rgba(0,229,160,0.18)" stroke-width="0.4" stroke-linejoin="round"/><path d="M36.64,26.87L71.61,12.57L28.39,12.57Z" fill="rgb(2,29,4)" stroke="rgba(0,229,160,0.9)" stroke-width="1.2" stroke-linejoin="round"/><path d="M36.64,26.87L28.39,12.57L6.78,50.00Z" fill="rgb(2,29,4)" stroke="rgba(0,229,160,0.9)" stroke-width="1.2" stroke-linejoin="round"/><path d="M76.71,50.00L71.61,87.43L93.22,50.00Z" fill="rgb(2,29,4)" stroke="rgba(0,229,160,0.9)" stroke-width="1.2" stroke-linejoin="round"/><path d="M76.71,50.00L93.22,50.00L71.61,12.57Z" fill="rgb(2,29,4)" stroke="rgba(0,229,160,0.9)" stroke-width="1.2" stroke-linejoin="round"/><path d="M6.78,50.00L28.39,87.43L36.64,73.13Z" fill="rgb(2,29,4)" stroke="rgba(0,229,160,0.9)" stroke-width="1.2" stroke-linejoin="round"/><path d="M36.64,73.13L28.39,87.43L71.61,87.43Z" fill="rgb(2,29,4)" stroke="rgba(0,229,160,0.9)" stroke-width="1.2" stroke-linejoin="round"/><path d="M36.64,26.87L76.71,50.00L71.61,12.57Z" fill="rgb(5,40,10)" stroke="rgba(0,229,160,0.9)" stroke-width="1.2" stroke-linejoin="round"/><path d="M36.64,26.87L6.78,50.00L36.64,73.13Z" fill="rgb(5,40,10)" stroke="rgba(0,229,160,0.9)" stroke-width="1.2" stroke-linejoin="round"/><path d="M36.64,73.13L71.61,87.43L76.71,50.00Z" fill="rgb(5,40,10)" stroke="rgba(0,229,160,0.9)" stroke-width="1.2" stroke-linejoin="round"/><path d="M36.64,26.87L36.64,73.13L76.71,50.00Z" fill="rgb(8,48,14)" stroke="rgba(0,229,160,0.9)" stroke-width="1.2" stroke-linejoin="round"/>
</svg>